# xmcd
# 
# Track frame offsets:
#     150
#     15621
#     28826
#     36860
#     60693
# 
# Disc length: 1407
# 
# Revision: 1
# Processed by: cddbd v1.5.2PL0 Copyright (c) Steve Scherf et al.
# Submitted via: fre:ac v1.0.31
# 
DISCID=3a057d05
DTITLE=The City Lights - What You Gonna Do? CDEp
DYEAR=2004
DGENRE=Rock
TTITLE0=What You Gonna Do?
TTITLE1=She Don't Even Know My Name
TTITLE2=Communist Radio
TTITLE3=Wild Man
TTITLE4=(Film Clip) What You Gonna Do?
EXTD=YEAR: 2004
EXTT0=
EXTT1=
EXTT2=
EXTT3=
EXTT4=
PLAYORDER=
